<svg width="265" height="100" viewBox="0 0 265 100" fill="none" xmlns="http://www.w3.org/2000/svg">
<path fill-rule="evenodd" clip-rule="evenodd" d="M37.5 0H50H62.5L75 25L62.5 50L50 25H37.5H25L37.5 0ZM112.5 0H100H87.5L75 25H87.5H100L112.5 50L125 25L112.5 0ZM12.5 75H25L37.5 50L50 75L37.5 100H25H12.5L0 75H12.5ZM50 75H62.5H75L87.5 50L100 75L87.5 100H75H62.5L50 75Z" fill="#EF4444"/>
<path d="M183.091 49.7273C183.091 34.1818 173.091 25.8182 160.455 25.8182C147.727 25.8182 137.818 34.1818 137.818 49.7273C137.818 65.1818 147.727 73.6364 160.455 73.6364C173.091 73.6364 183.091 65.2727 183.091 49.7273ZM170.091 49.7273C170.091 58.0909 166.727 62.6364 160.455 62.6364C154.182 62.6364 150.818 58.0909 150.818 49.7273C150.818 41.3636 154.182 36.8182 160.455 36.8182C166.727 36.8182 170.091 41.3636 170.091 49.7273ZM188.938 73H220.392V62.8182H201.574V26.4545H188.938V73ZM225.5 73H238.136V59.1818H245.136C255.75 59.1818 262.864 52.9318 262.864 42.9091C262.864 33 255.932 26.4545 245.591 26.4545H225.5V73ZM238.136 49.3636V36.5455H242.591C247.023 36.5455 249.682 38.9091 249.682 42.9091C249.682 46.8864 247.023 49.3636 242.591 49.3636H238.136Z" fill="black"/>
</svg>
